<svg xmlns="http://www.w3.org/2000/svg" width="1024" height="1024" fill="none"><g filter="url(#a)"><rect width="900" height="900" x="62" y="62" fill="url(#b)" rx="450"/></g><rect width="820" height="820" x="102" y="102" fill="url(#c)" rx="410"/><g clip-path="url(#d)" opacity=".5"><path fill="#fff" d="M510 102h4v820h-4z"/><path fill="#fff" d="m800.5 220.7 2.8 2.8-579.8 579.8-2.8-2.8z"/><path fill="#fff" d="M704 102h4v820h-4zm-388 0h4v820h-4z"/><path fill="#fff" d="M102 514v-4h820v4z"/><rect width="548" height="548" x="238" y="238" stroke="#fff" stroke-width="4" rx="274"/><rect width="388" height="388" x="318" y="318" stroke="#fff" stroke-width="4" rx="194"/><path fill="#fff" d="m220.7 223.5 2.8-2.8 579.8 579.8-2.8 2.8z"/><path fill="#fff" d="M102 320v-4h820v4zm0 388v-4h820v4z"/></g><g clip-path="url(#e)"><path fill="#F2F2F2" d="M640.6 703s-16.6-19.8-30.5-37.2c60.6-17 83.7-54.7 83.7-54.7-19 12.4-37 21.1-53.2 27.1a326.3 326.3 0 0 1-187 19.3c-26.3-5-49-12.4-68-19.8a272 272 0 0 1-33.7-15.6c-1.4-.9-2.8-1.4-4.1-2.3-1-.4-1.4-.9-1.9-1.4-8.3-4.5-13-7.8-13-7.8s22.3 36.8 81 54.3C400 682.3 383 703 383 703c-102.2-3.2-141.1-69.8-141.1-69.8 0-148 66.6-268 66.6-268 66.6-49.6 130-48.2 130-48.2l4.7 5.5c-83.3 24-121.7 60.2-121.7 60.2s10.2-5.5 27.3-13.3a349.4 349.4 0 0 1 105-29c2.8-.4 5-.9 7.9-.9a379 379 0 0 1 232.7 43.2s-36.6-34.4-115.2-58.3l6.5-7.4s63.4-1.4 130 48.3c0 0 66.6 119.9 66.6 267.9 0 0-39.3 66.6-141.6 69.8ZM425.5 488.4c-26.4 0-47.2 23-47.2 51s21.3 51 47.2 51c26.4 0 47.2-23 47.2-51 .4-28-20.8-51-47.2-51Zm168.9 0c-26.4 0-47.2 23-47.2 51s21.2 51 47.2 51c26.3 0 47.1-23 47.1-51s-20.8-51-47.1-51Z"/></g><defs><linearGradient id="b" x1="512" x2="512" y1="62" y2="962" gradientUnits="userSpaceOnUse"><stop stop-color="#fff"/><stop offset="1" stop-color="#E5E8EA"/></linearGradient><linearGradient id="c" x1="102" x2="922" y1="102" y2="922" gradientUnits="userSpaceOnUse"><stop offset=".1" stop-color="#2A3136"/><stop offset=".8" stop-color="#10161B"/></linearGradient><clipPath id="d"><rect width="820" height="820" x="102" y="102" fill="#fff" rx="410"/></clipPath><clipPath id="e"><path fill="#fff" d="M241.8 317h540.4v386H241.8z"/></clipPath><filter id="a" width="948" height="948" x="38" y="62" color-interpolation-filters="sRGB" filterUnits="userSpaceOnUse"><feFlood flood-opacity="0" result="BackgroundImageFix"/><feColorMatrix in="SourceAlpha" result="hardAlpha" values="0 0 0 0 0 0 0 0 0 0 0 0 0 0 0 0 0 0 127 0"/><feOffset dy="24"/><feGaussianBlur stdDeviation="12"/><feComposite in2="hardAlpha" operator="out"/><feColorMatrix values="0 0 0 0 0 0 0 0 0 0 0 0 0 0 0 0 0 0 0.15 0"/><feBlend in2="BackgroundImageFix" result="effect1_dropShadow_5427_21286"/><feBlend in="SourceGraphic" in2="effect1_dropShadow_5427_21286" result="shape"/></filter></defs></svg>